<?xml version="1.0" encoding="UTF-8"?>
<svg id="Ebene_1" xmlns="http://www.w3.org/2000/svg" xmlns:xlink="http://www.w3.org/1999/xlink" version="1.1" viewBox="0 0 94 114">
  <!-- Generator: Adobe Illustrator 29.2.0, SVG Export Plug-In . SVG Version: 2.1.0 Build 108)  -->
  <defs>
    <style>
      .st0 {
        fill: #fff;
      }

      .st1 {
        fill: url(#Unbenannter_Verlauf_7401);
      }

      .st2 {
        fill: url(#Unbenannter_Verlauf_740);
      }
    </style>
    <linearGradient id="Unbenannter_Verlauf_740" data-name="Unbenannter Verlauf 740" x1="31.67" y1="27.65" x2="68.12" y2="78.85" gradientUnits="userSpaceOnUse">
      <stop offset="0" stop-color="#0163ae"/>
      <stop offset=".27" stop-color="#2752a2"/>
      <stop offset=".77" stop-color="#69368e"/>
      <stop offset="1" stop-color="#832c87"/>
    </linearGradient>
    <linearGradient id="Unbenannter_Verlauf_7401" data-name="Unbenannter Verlauf 740" x1="31.79" y1="39.03" x2="59.79" y2="39.03" xlink:href="#Unbenannter_Verlauf_740"/>
  </defs>
  <path class="st2" d="M72,44.65c0,1.41-.09,2.8-.26,4.16-.01.14-.03.28-.05.42-.81,6-3.2,11.4-6.69,15.64-7.12,10.96-14.17,20.3-18.96,33.13-4.71-12.62-12.04-22.29-19.09-33.18-3.48-4.27-5.87-9.71-6.66-15.74-.01-.1-.03-.19-.03-.28-.17-1.36-.26-2.74-.26-4.15,0-16.37,11.64-29.65,26-29.65s26,13.28,26,29.65Z"/>
  <path class="st0" d="M69,38.5c3,20.5-10.3,20.5-23,20.5s-26,1-23-20.5c1.56-11.21,10.3-20.5,23-20.5s21.36,9.3,23,20.5Z"/>
  <path class="st1" d="M45.43,52.49c-.22.01-.6.03-1.07,0-.64-.04-1.42-.17-2.42-.51-3.31-1.12-5.1-2.56-5.1-2.56-2.7-2.15-3.75-4.72-4.16-5.76-.6-1.52-.76-2.74-.81-3.07-.04-.36-.24-2.11.27-4.35.57-2.49,1.69-4.21,2.15-4.87.57-.82,1.77-2.49,4.03-3.84,2.2-1.32,4.23-1.63,5.37-1.79,2.02-.29,3.66-.13,4.56,0,1.02.15,2.56.39,4.3,1.28,1.79.92,2.83,2.05,3.76,3.07.78.85,2.16,2.43,2.95,4.87.34,1.04.48,1.94.54,2.56v11.35s0,.11,0,.19c-.05,1.1-.99,2.38-2.42,2.81-1.23.38-2.59.05-3.49-.77-.85-.77-1.03-1.73-1.07-2.05v-10.5c0-.06,0-.15,0-.26-.06-2.21-1.8-3.79-2.15-4.1-1.6-1.44-3.4-1.74-3.76-1.79-.4-.06-1.68-.22-3.22.26-1.32.41-2.16,1.07-2.42,1.28-.22.18-1.24,1.05-1.88,2.56-.14.34-.51,1.28-.54,2.56-.01.63-.02,1.67.54,2.82.63,1.29,1.62,2,2.42,2.56.87.62,1.63.93,1.88,1.02.51.2,1.21.46,2.15.51.65.03.66-.08,1.07,0,1.05.19,1.7,1.03,1.88,1.28.68.97.58,1.99.54,2.31-.16,1.12-.92,2.12-1.88,2.56-.64.3-1.35.34-2.01.38Z"/>
</svg>